<?xml version="1.0" encoding="UTF-8" standalone="no"?>
<!-- Created with Inkscape (http://www.inkscape.org/) -->

<svg
   width="125mm"
   height="180.75mm"
   viewBox="0 0 125 180.75"
   version="1.1"
   id="svg5"
   inkscape:version="1.2.1 (9c6d41e410, 2022-07-14)"
   sodipodi:docname="logo-pre-export.svg"
   inkscape:export-filename=".\logo-square.png"
   inkscape:export-xdpi="101.6"
   inkscape:export-ydpi="101.6"
   xmlns:inkscape="http://www.inkscape.org/namespaces/inkscape"
   xmlns:sodipodi="http://sodipodi.sourceforge.net/DTD/sodipodi-0.dtd"
   xmlns="http://www.w3.org/2000/svg"
   xmlns:svg="http://www.w3.org/2000/svg">
  <sodipodi:namedview
     id="namedview7"
     pagecolor="#505050"
     bordercolor="#ffffff"
     borderopacity="1"
     inkscape:showpageshadow="0"
     inkscape:pageopacity="0"
     inkscape:pagecheckerboard="1"
     inkscape:deskcolor="#505050"
     inkscape:document-units="mm"
     showgrid="false"
     inkscape:zoom="0.914906"
     inkscape:cx="542.6787"
     inkscape:cy="351.40222"
     inkscape:window-width="2560"
     inkscape:window-height="1361"
     inkscape:window-x="-9"
     inkscape:window-y="-9"
     inkscape:window-maximized="1"
     inkscape:current-layer="layer1" />
  <defs
     id="defs2" />
  <g
     inkscape:label="Layer 1"
     inkscape:groupmode="layer"
     id="layer1">
    <path
       id="rect111"
       style="fill:#ffffff;stroke-width:0.319362"
       d="M 62.50007,0 A 25,18.75 0 0 0 37.52381,18.250048 H 25.000027 V 30.750061 A 12.5,12.5 0 0 0 12.500015,43.250073 V 168.25019 H 6.749978 v 0.0202 a 6.25,6.25 0 0 0 -0.500228,-0.0202 6.25,6.25 0 0 0 -6.22856,5.75004 H 0 v 6.74997 h 6.749975 111.999885 0.50023 5.75004 v -6.74997 h -0.0202 a 6.25,6.25 0 0 0 -5.72988,-5.72989 v -0.0202 h -0.50023 -6.24974 V 43.250073 A 12.5,12.5 0 0 0 100.0001,30.750061 V 18.250048 H 87.49079 A 25,18.75 0 0 0 62.50007,0 Z" />
  </g>
</svg>
