<?xml version="1.0" encoding="UTF-8" standalone="no"?>
<svg
   width="125"
   height="180.75"
   viewBox="-2.5 -2.5 130 185.75"
   fill="currentColor"
   version="1.1"
   id="svg4"
   sodipodi:docname="logo-for-export.svg"
   inkscape:version="1.2.1 (9c6d41e410, 2022-07-14)"
   xmlns:inkscape="http://www.inkscape.org/namespaces/inkscape"
   xmlns:sodipodi="http://sodipodi.sourceforge.net/DTD/sodipodi-0.dtd"
   xmlns="http://www.w3.org/2000/svg"
   xmlns:svg="http://www.w3.org/2000/svg">
  <defs
     id="defs8" />
  <sodipodi:namedview
     id="namedview6"
     pagecolor="#505050"
     bordercolor="#ffffff"
     borderopacity="1"
     inkscape:showpageshadow="0"
     inkscape:pageopacity="0"
     inkscape:pagecheckerboard="1"
     inkscape:deskcolor="#505050"
     showgrid="false"
     inkscape:zoom="5.6818811"
     inkscape:cx="62.567308"
     inkscape:cy="90.375"
     inkscape:window-width="2560"
     inkscape:window-height="1361"
     inkscape:window-x="-9"
     inkscape:window-y="-9"
     inkscape:window-maximized="1"
     inkscape:current-layer="svg4" />
  <path
     d="M 62.500063,0 A 25,18.75 0 0 0 37.523807,18.250048 H 25.000024 v 10.500135 a 12.5,12.5 0 0 0 -12.500012,12.500012 12.5,12.5 0 0 0 0.165364,1.999878 H 12.500012 V 168.25019 H 6.749975 v 0.0202 a 6.25,6.25 0 0 0 -0.500228,-0.0202 6.25,6.25 0 0 0 -6.22856,5.75004 H 0 v 6.74997 h 6.749975 111.999875 0.50023 5.75004 v -6.74997 h -0.0202 a 6.25,6.25 0 0 0 -5.72988,-5.72989 v -0.0202 h -0.50023 -6.24974 V 43.250073 A 12.5,12.5 0 0 0 100.00009,30.750061 V 18.250048 H 87.490783 A 25,18.75 0 0 0 62.500063,0 Z"
     id="path2"
     style="fill:#ffffff"
     inkscape:export-filename=".\logo.png"
     inkscape:export-xdpi="96"
     inkscape:export-ydpi="96" />
</svg>
