<?xml version="1.0" encoding="UTF-8" standalone="no"?>
<!-- Created with Inkscape (http://www.inkscape.org/) -->

<svg
   width="210mm"
   height="297mm"
   viewBox="0 0 210 297"
   version="1.1"
   id="svg5"
   inkscape:version="1.2.1 (9c6d41e410, 2022-07-14)"
   sodipodi:docname="union.svg"
   xmlns:inkscape="http://www.inkscape.org/namespaces/inkscape"
   xmlns:sodipodi="http://sodipodi.sourceforge.net/DTD/sodipodi-0.dtd"
   xmlns="http://www.w3.org/2000/svg"
   xmlns:svg="http://www.w3.org/2000/svg">
  <sodipodi:namedview
     id="namedview7"
     pagecolor="#505050"
     bordercolor="#ffffff"
     borderopacity="1"
     inkscape:showpageshadow="0"
     inkscape:pageopacity="0"
     inkscape:pagecheckerboard="1"
     inkscape:deskcolor="#505050"
     inkscape:document-units="mm"
     showgrid="false"
     inkscape:zoom="0.914906"
     inkscape:cx="410.42468"
     inkscape:cy="359.05328"
     inkscape:window-width="2560"
     inkscape:window-height="1361"
     inkscape:window-x="-9"
     inkscape:window-y="-9"
     inkscape:window-maximized="1"
     inkscape:current-layer="layer1" />
  <defs
     id="defs2" />
  <g
     inkscape:label="Layer 1"
     inkscape:groupmode="layer"
     id="layer1">
    <path
       id="rect111"
       style="fill:#ffffff;stroke-width:0.319362"
       d="M 100.0001 6.7499756 A 25 18.75 0 0 0 75.023844 25.000024 L 62.500061 25.000024 L 62.500061 35.500159 A 12.5 12.5 0 0 0 50.000049 48.000171 A 12.5 12.5 0 0 0 50.165413 50.000049 L 50.000049 50.000049 L 50.000049 175.00017 L 44.250012 175.00017 L 44.250012 175.02032 A 6.25 6.25 0 0 0 43.749784 175.00017 A 6.25 6.25 0 0 0 37.521224 180.75021 L 37.500037 180.75021 L 37.500037 187.50018 L 44.250012 187.50018 L 156.24989 187.50018 L 156.75012 187.50018 L 162.50016 187.50018 L 162.50016 180.75021 L 162.48 180.75021 A 6.25 6.25 0 0 0 156.75012 175.02032 L 156.75012 175.00017 L 156.24989 175.00017 L 150.00015 175.00017 L 150.00015 50.000049 A 12.5 12.5 0 0 0 137.50013 37.500037 L 137.50013 25.000024 L 124.99082 25.000024 A 25 18.75 0 0 0 100.0001 6.7499756 z " />
  </g>
</svg>
